<svg height="480pt" viewBox="-63 0 479 480" width="480pt" xmlns="http://www.w3.org/2000/svg"><path d="m248.5 112v-104h-240v464h336v-360zm0 0" fill="#9bc9ff"/><path d="m344.5 112-96-104v104zm0 0" fill="#9bc9ff"/><g fill="#1e81ce"><path d="m352.402344 111.511719c-.039063-.636719-.15625-1.269531-.351563-1.878907-.0625-.273437-.144531-.539062-.246093-.800781-.339844-.835937-.824219-1.609375-1.433594-2.28125l-96-104c-.679688-.71875-1.496094-1.300781-2.398438-1.710937-.242187-.109375-.484375-.207032-.738281-.289063-.726563-.269531-1.492187-.433593-2.269531-.4804685-.152344.0195313-.296875-.0703125-.464844-.0703125h-240c-4.417969 0-8 3.582031-8 8v464c0 4.417969 3.582031 8 8 8h336c4.417969 0 8-3.582031 8-8v-360c0-.167969-.078125-.320312-.097656-.488281zm-26.175782-7.511719h-69.726562v-75.535156zm-309.726562 360v-448h224v96c0 4.417969 3.582031 8 8 8h88v344zm0 0"/><path d="m296.5 160h-176c-4.417969 0-8 3.582031-8 8s3.582031 8 8 8h176c4.417969 0 8-3.582031 8-8s-3.582031-8-8-8zm0 0"/><path d="m296.5 320h-176c-4.417969 0-8-3.582031-8-8s3.582031-8 8-8h176c4.417969 0 8 3.582031 8 8s-3.582031 8-8 8zm0 0"/><path d="m296.5 392h-176c-4.417969 0-8-3.582031-8-8s3.582031-8 8-8h176c4.417969 0 8 3.582031 8 8s-3.582031 8-8 8zm0 0"/><path d="m77.1875 185.945312c-2.121094 0-4.15625-.84375-5.65625-2.34375l-22.625-22.632812c-3.03125-3.140625-2.988281-8.128906.097656-11.214844 3.085938-3.085937 8.078125-3.128906 11.214844-.097656l16.96875 16.976562 39.59375-39.601562c2.007812-2.078125 4.980469-2.914062 7.777344-2.179688 2.796875.730469 4.984375 2.914063 5.714844 5.710938.730468 2.796875-.101563 5.773438-2.179688 7.78125l-45.25 45.257812c-1.5 1.5-3.535156 2.34375-5.65625 2.34375zm0 0"/><path d="m296.5 248h-176c-4.417969 0-8-3.582031-8-8s3.582031-8 8-8h176c4.417969 0 8 3.582031 8 8s-3.582031 8-8 8zm0 0"/><path d="m77.1875 257.945312c-2.121094 0-4.15625-.84375-5.65625-2.34375l-22.625-22.632812c-3.03125-3.140625-2.988281-8.128906.097656-11.214844 3.085938-3.085937 8.078125-3.128906 11.214844-.097656l16.96875 16.976562 39.59375-39.601562c2.007812-2.078125 4.980469-2.914062 7.777344-2.179688 2.796875.730469 4.984375 2.914063 5.714844 5.710938.730468 2.796875-.101563 5.773438-2.179688 7.78125l-45.25 45.257812c-1.5 1.5-3.535156 2.34375-5.65625 2.34375zm0 0"/><path d="m77.1875 329.945312c-2.121094 0-4.15625-.84375-5.65625-2.34375l-22.625-22.632812c-3.03125-3.140625-2.988281-8.128906.097656-11.214844 3.085938-3.085937 8.078125-3.128906 11.214844-.097656l16.96875 16.976562 39.59375-39.601562c3.136719-3.03125 8.128906-2.988281 11.214844.097656 3.085937 3.085938 3.128906 8.074219.097656 11.214844l-45.25 45.257812c-1.5 1.5-3.535156 2.34375-5.65625 2.34375zm0 0"/><path d="m77.1875 401.945312c-2.121094 0-4.15625-.84375-5.65625-2.34375l-22.625-22.632812c-3.03125-3.140625-2.988281-8.128906.097656-11.214844 3.085938-3.085937 8.078125-3.128906 11.214844-.097656l16.96875 16.976562 39.59375-39.601562c3.136719-3.03125 8.128906-2.988281 11.214844.097656 3.085937 3.085938 3.128906 8.074219.097656 11.214844l-45.25 45.257812c-1.5 1.5-3.535156 2.34375-5.65625 2.34375zm0 0"/></g></svg>