<svg height="480pt" viewBox="0 -72 480 480" width="480pt" xmlns="http://www.w3.org/2000/svg"><g fill="#9bc9ff"><path d="m326.03125 229.519531c.214844.089844.464844.175781.679688.273438-.214844-.097657-.464844-.191407-.679688-.273438zm0 0"/><path d="m314.03125 221.296875c-.386719-.523437-.726562-1.085937-1.007812-1.671875.28125.589844.617187 1.148438 1.007812 1.671875zm0 0"/><path d="m312 216c.015625.921875.199219 1.835938.535156 2.695312-.335937-.859374-.519531-1.773437-.535156-2.695312zm0 0"/><path d="m321.601562 227.320312c.535157.296876 1.125.582032 1.710938.871094-.609375-.289062-1.199219-.574218-1.710938-.871094zm0 0"/><path d="m336.128906 233.089844-.03125-.011719zm0 0"/><path d="m316.390625 223.761719c-.484375-.429688-.949219-.878907-1.390625-1.355469.441406.476562.90625.925781 1.390625 1.355469zm0 0"/><path d="m317.871094 224.953125c.519531.382813 1.082031.75 1.664062 1.125-.582031-.375-1.136718-.742187-1.664062-1.125zm0 0"/><path d="m323.289062 228.191406c.886719.449219 1.757813.898438 2.742188 1.328125-.984375-.429687-1.855469-.878906-2.742188-1.328125zm0 0"/><path d="m326.710938 229.792969c3.0625 1.273437 6.199218 2.371093 9.386718 3.285156-3.1875-.917969-6.320312-2.015625-9.386718-3.285156zm0 0"/><path d="m315 222.398438c-.34375-.351563-.664062-.722657-.96875-1.109376.304688.386719.625.757813.96875 1.109376zm0 0"/><path d="m319.535156 226.078125c.648438.417969 1.304688.800781 2.039063 1.242187-.734375-.398437-1.390625-.824218-2.039063-1.242187zm0 0"/><path d="m316.390625 223.761719c.457031.40625.953125.796875 1.480469 1.191406-.527344-.394531-1.015625-.792969-1.480469-1.191406zm0 0"/><path d="m312.535156 218.695312c.144532.320313.308594.628907.488282.929688-.179688-.300781-.34375-.609375-.488282-.929688zm0 0"/><path d="m316.496094 152.121094c-2.914063-4.875-4.464844-10.441406-4.496094-16.121094h-240c0 17.671875-14.328125 32-32 32v64c17.671875 0 32 14.328125 32 32h240c0-3.699219.652344-7.371094 1.921875-10.847656-1.175781-1.46875-1.847656-3.273438-1.921875-5.152344v-32c0-4.367188 4-8.433594 10.800781-11.953125-6.863281-3.535156-10.800781-7.648437-10.800781-12.046875v-32c.269531-3.160156 1.914062-6.039062 4.496094-7.878906zm-124.496094 79.878906c-17.671875 0-32-14.328125-32-32s14.328125-32 32-32 32 14.328125 32 32-14.328125 32-32 32zm0 0"/><path d="m72 264c0-17.671875-14.328125-32-32-32v-64c17.671875 0 32-14.328125 32-32h240c.03125 5.679688 1.582031 11.246094 4.496094 16.121094 9.175781-7.921875 31.6875-13.945313 59.503906-15.640625v-32.480469h-368v192h304v-24c0-4.375 3.894531-8.472656 10.695312-12-3.414062-1.585938-6.421874-3.925781-8.800781-6.847656-1.261719 3.476562-1.902343 7.148437-1.894531 10.847656zm0 0"/><path d="m336.128906 233.089844c2.488282.726562 5.085938 1.414062 7.871094 2.03125-2.785156-.617188-5.382812-1.304688-7.871094-2.03125zm0 0"/><path d="m104 8v32h336v100.800781c19.390625 4.375 32 11.320313 32 19.199219v-152zm0 0"/><path d="m408 136.480469c10.765625.597656 21.464844 2.050781 32 4.34375v-100.824219h-368v32h336zm0 0"/><path d="m408 136.480469v-64.480469h-368v32h336v32.480469c5.167969-.3125 10.519531-.480469 16-.480469s10.832031.167969 16 .480469zm0 0"/></g><path d="m96 0v32h-32v32h-32v32h-32v208h296v-16h-280v-176h352v8h16v-24h-336v-16h352v40h16v-56h-336v-16h352v72h16v-88h-336v-16h352v120h16v-136zm0 0" fill="#1e81ce"/><path d="m152 200c0 22.089844 17.910156 40 40 40s40-17.910156 40-40-17.910156-40-40-40c-22.082031.027344-39.972656 17.917969-40 40zm64 0c0 13.253906-10.746094 24-24 24s-24-10.746094-24-24 10.746094-24 24-24 24 10.746094 24 24zm0 0" fill="#1e81ce"/><path d="m248 192h32v16h-32zm0 0" fill="#1e81ce"/><path d="m104 192h32v16h-32zm0 0" fill="#1e81ce"/><path d="m48 224.800781v-49.601562c15.699219-3.230469 27.96875-15.5 31.199219-31.199219h224.800781v-16h-240v8c0 13.253906-10.746094 24-24 24h-8v80h8c13.253906 0 24 10.746094 24 24v8h232v-16h-216.800781c-3.230469-15.699219-15.5-27.96875-31.199219-31.199219zm0 0" fill="#1e81ce"/><path d="m392 128c-42.398438 0-88 10.015625-88 32v32c.121094 4.511719 2.027344 8.792969 5.304688 11.894531-3.3125 3.167969-5.21875 7.523438-5.304688 12.105469v32c.121094 4.511719 2.027344 8.792969 5.304688 11.894531-3.3125 3.167969-5.21875 7.523438-5.304688 12.105469v32c0 21.984375 45.601562 32 88 32s88-10.015625 88-32v-32c-.085938-4.582031-1.992188-8.9375-5.304688-12.105469 3.277344-3.101562 5.183594-7.382812 5.304688-11.894531v-32c-.085938-4.582031-1.992188-8.9375-5.304688-12.105469 3.277344-3.101562 5.183594-7.382812 5.304688-11.894531v-32c0-21.984375-45.601562-32-88-32zm0 16c46.398438 0 70.398438 11.464844 72 16-.632812 1.480469-6.289062 7-25.792969 11.335938-10.097656 2.238281-20.359375 3.644531-30.6875 4.207031-10.324219.632812-20.679687.632812-31.007812 0-10.347657-.5625-20.632813-1.980469-30.75-4.230469-19.898438-4.425781-25.347657-10.089844-25.738281-11.199219v-.042969c1.25-4.429687 25.199218-16.070312 71.976562-16.070312zm56 56.703125v-15.375c5.507812-1.417969 10.867188-3.363281 16-5.808594v12.382813c-.574219 2.035156-5.945312 5.5625-16 8.800781zm-128-8.800781v-12.382813c5.132812 2.449219 10.492188 4.390625 16 5.808594v15.375c-10.054688-3.238281-15.425781-6.765625-16-8.800781zm32-3.0625c5.070312.863281 10.40625 1.554687 16 2.070312v16c-5.894531-.574218-11.199219-1.359375-16-2.246094zm32 2.921875c2.671875.078125 13.328125.078125 16 0v16.109375c-2.59375.082031-13.40625.082031-16 0zm32-.851563c5.609375-.53125 10.945312-1.222656 16-2.070312v15.800781c-4.800781.886719-10.105469 1.671875-16 2.246094zm32 65.792969v-15.375c5.507812-1.417969 10.867188-3.363281 16-5.808594v12.382813c-.574219 2.035156-5.945312 5.5625-16 8.800781zm-16 3.9375c-4.800781.886719-10.105469 1.671875-16 2.246094v-16c5.609375-.53125 10.945312-1.222657 16-2.070313zm-32 3.199219c-2.59375.082031-13.40625.082031-16 0v-16.078125c2.671875.078125 13.328125.078125 16 0zm-32-.984375c-5.894531-.574219-11.199219-1.359375-16-2.246094v-15.769531c5.070312.863281 10.40625 1.554687 16 2.070312zm-32-6.183594c-10.054688-3.238281-15.425781-6.769531-16-8.800781v-12.351563c5.132812 2.449219 10.492188 4.390625 16 5.808594zm-16 47.199219v-12.351563c5.132812 2.449219 10.492188 4.390625 16 5.808594v15.375c-10.054688-3.238281-15.425781-6.765625-16-8.800781zm48 14.984375c-5.894531-.574219-11.199219-1.359375-16-2.246094v-15.769531c5.070312.863281 10.40625 1.554687 16 2.070312zm16 .984375v-16.078125c2.671875.078125 13.328125.078125 16 0v16.109375c-2.59375.082031-13.40625.082031-16 0zm48-3.199219c-4.800781.886719-10.105469 1.671875-16 2.246094v-16c5.609375-.53125 10.945312-1.222657 16-2.070313zm16-3.9375v-15.375c5.507812-1.417969 10.867188-3.363281 16-5.808594v12.382813c-.574219 2.035156-5.945312 5.5625-16 8.800781zm16-40.800781c-.351562 1.296875-5.769531 6.992187-25.824219 11.457031-10.097656 2.238281-20.359375 3.648437-30.6875 4.207031-10.328125.632813-20.683593.632813-31.007812 0-10.351563-.5625-20.636719-1.976562-30.753907-4.230468-19.894531-4.425782-25.34375-10.089844-25.734374-11.199219v-.039063c.804687-1.335937 1.945312-2.441406 3.304687-3.203125 22.003906 7.972657 45.308594 11.738281 68.703125 11.105469 23.390625.644531 46.691406-3.109375 68.695312-11.070312 1.28125.757812 2.40625 1.757812 3.304688 2.941406zm0-56c-.351562 1.296875-5.769531 6.992187-25.824219 11.457031-10.097656 2.238281-20.359375 3.648437-30.6875 4.207031-10.328125.632813-20.683593.632813-31.007812 0-10.351563-.5625-20.636719-1.976562-30.753907-4.230468-19.894531-4.425782-25.34375-10.089844-25.734374-11.199219v-.039063c.804687-1.335937 1.945312-2.441406 3.304687-3.203125 22.003906 7.972657 45.308594 11.738281 68.703125 11.105469 23.390625.644531 46.691406-3.109375 68.695312-11.070312 1.28125.757812 2.40625 1.757812 3.304688 2.941406zm0 0" fill="#1e81ce"/></svg>