<svg height="418pt" viewBox="0 0 418 418.00838" width="418pt" xmlns="http://www.w3.org/2000/svg"><path d="m370.019531 47.992188c-52.984375-51.585938-137.480469-51.382813-190.21875.460937-52.734375 51.84375-54.378906 136.324219-3.703125 190.179687l3.28125 3.28125c53.855469 50.675782 138.335938 49.03125 190.179688-3.703124 51.84375-52.734376 52.046875-137.230469.460937-190.21875zm-22.640625 169.683593c-40.609375 40.628907-106.46875 40.640625-147.089844.023438-40.625-40.617188-40.625-106.476563 0-147.089844 40.621094-40.617187 106.480469-40.605469 147.089844.023437 19.515625 19.492188 30.480469 45.941407 30.480469 73.519532 0 27.582031-10.964844 54.03125-30.480469 73.523437zm0 0" fill="#57a4ff"/><path d="m189.058594 251.59375-33.921875 34h-.078125l-22.640625-22.640625h.082031l33.917969-34zm0 0" fill="#57a4ff"/><path d="m155.058594 285.59375-22.640625-22.640625h.082031zm0 0" fill="#57a4ff"/><g fill="#004fac"><path d="m375.699219 42.3125c-52.882813-53.046875-137.613281-56.664062-194.824219-8.316406-57.210938 48.351562-67.769531 132.5-24.28125 193.484375l-24.136719 24.136719-5.65625-5.664063c-3.121093-3.121094-8.1875-3.121094-11.308593 0l-113.144532 113.144531c-3.125 3.125-3.125 8.1875 0 11.3125l45.253906 45.257813c3.125 3.121093 8.1875 3.121093 11.3125 0l113.144532-113.144531c3.121094-3.125 3.121094-8.1875 0-11.3125l-5.664063-5.65625 24.136719-24.136719c60.988281 43.371093 145.042969 32.765625 193.347656-24.394531 48.308594-57.160157 44.75-141.800782-8.179687-194.710938zm-322.402344 356.386719-33.980469-33.945313 101.820313-101.832031 28.304687 28.304687 5.640625 5.597657zm101.785156-124.457031-11.3125-11.3125 22.632813-22.632813 11.3125 11.3125zm209.304688-39.601563c-43.179688 43.183594-110.847657 49.847656-161.625 15.921875-50.773438-33.925781-70.511719-98.992188-47.144531-155.410156 23.371093-56.417969 83.339843-88.472656 143.230468-76.558594 59.894532 11.914062 103.027344 64.476562 103.027344 125.542969.09375 33.964843-13.40625 66.554687-37.488281 90.503906zm0 0"/><path d="m353.074219 64.9375c-37.78125-37.785156-96.988281-43.617188-141.417969-13.9375-44.429688 29.683594-61.703125 86.617188-41.257812 135.984375 20.445312 49.367187 72.914062 77.414063 125.320312 66.996094 52.40625-10.421875 90.152344-56.410157 90.15625-109.84375.082031-29.71875-11.730469-58.238281-32.800781-79.199219zm-11.3125 147.082031c-32.382813 32.386719-83.132813 37.390625-121.214844 11.945313-38.085937-25.441406-52.890625-74.242188-35.367187-116.554688 17.523437-42.316406 62.5-66.359375 107.417968-57.425781 44.921875 8.933594 77.273438 48.355469 77.277344 94.152344.070312 25.472656-10.054688 49.917969-28.113281 67.882812zm0 0"/><path d="m115.492188 279.898438-5.65625 5.65625c-2.082032 2.007812-2.917969 4.980468-2.1875 7.777343.730468 2.796875 2.910156 4.984375 5.707031 5.71875s5.773437-.097656 7.78125-2.175781l5.65625-5.65625c3.035156-3.140625 2.988281-8.128906-.097657-11.214844-3.085937-3.085937-8.074218-3.128906-11.210937-.097656zm0 0"/><path d="m92.859375 302.523438-56.570313 56.574218c-2.078124 2.007813-2.914062 4.984375-2.179687 7.78125.730469 2.796875 2.914063 4.980469 5.714844 5.710938 2.796875.734375 5.769531-.101563 7.777343-2.179688l56.570313-56.566406c3.125-3.125 3.125-8.191406.003906-11.316406-3.125-3.128906-8.191406-3.128906-11.316406-.003906zm0 0"/></g></svg>