<svg height="496pt" viewBox="-152 0 496 496" width="496pt" xmlns="http://www.w3.org/2000/svg"><path d="m128 488c-66.242188-.074219-119.925781-53.757812-120-120v-240c.074219-66.242188 53.757812-119.925781 120-120v96c-13.253906 0-24 10.746094-24 24v240c0 13.253906 10.746094 24 24 24zm0 0" fill="#57a4ff"/><g fill="#004fac"><path d="m128 112h56c4.417969 0 8-3.582031 8-8v-96c0-4.417969-3.582031-8-8-8h-56c-70.65625.0820312-127.9179688 57.34375-128 128v240c.0820312 70.65625 57.34375 127.917969 128 128h56c4.417969 0 8-3.582031 8-8v-96c0-4.417969-3.582031-8-8-8h-56c-8.835938 0-16-7.164062-16-16v-240c0-8.835938 7.164062-16 16-16zm48-16h-40v-80h40zm0 384h-40v-80h40zm-56-81.007812v80.726562c-58.570312-4.265625-103.929688-52.992188-104-111.71875v-240c.070312-58.726562 45.429688-107.453125 104-111.71875v80.726562c-14.117188 3.667969-23.980469 16.40625-24 30.992188v240c.019531 14.585938 9.882812 27.324219 24 30.992188zm0 0"/><path d="m40 200c-4.417969 0-8 3.582031-8 8v104c0 4.417969 3.582031 8 8 8s8-3.582031 8-8v-104c0-4.417969-3.582031-8-8-8zm0 0"/><path d="m34.320312 330.320312c-1.464843 1.53125-2.292968 3.5625-2.320312 5.679688.011719.535156.066406 1.070312.160156 1.601562.085938.5.25.984376.480469 1.4375.175781.511719.417969.996094.71875 1.441407.296875.417969.617187.820312.960937 1.199219 3.15625 3.09375 8.203126 3.09375 11.359376 0l.960937-1.199219c.300781-.449219.539063-.933594.71875-1.441407.234375-.449218.390625-.9375.472656-1.4375.097657-.53125.15625-1.066406.167969-1.601562.019531-3.25-1.929688-6.1875-4.933594-7.433594-3-1.246094-6.457031-.554687-8.746094 1.753906zm0 0"/></g></svg>