<svg height="512" viewBox="0 0 512 512" width="512" xmlns="http://www.w3.org/2000/svg"><g><g fill="#57a4ff"><path d="m152 400h-32a16 16 0 0 0 -32 0h-32a48 48 0 0 1 96 0z"/><path d="m456 400h-32a16 16 0 0 0 -32 0h-32a48 48 0 0 1 96 0z"/><path d="m496 272h-136v-88h79.43z"/><path d="m472 304h24v32h-24a16 16 0 1 1 0-32z"/><path d="m104 352a48 48 0 1 0 48 48 48 48 0 0 0 -48-48zm0 64a16 16 0 1 1 16-16 16 16 0 0 1 -16 16z"/><path d="m408 352a48 48 0 1 0 48 48 48 48 0 0 0 -48-48zm0 64a16 16 0 1 1 16-16 16 16 0 0 1 -16 16z"/><path d="m320 108v196h-304v-196a19.994 19.994 0 0 1 20-20h264a19.994 19.994 0 0 1 20 20z"/><path d="m496 272h-136v-88h79.43z"/><path d="m496 304v32h-24a16 16 0 1 1 0-32z"/></g><g fill="#004fac"><path d="m104 376a24 24 0 1 0 24 24 24.027 24.027 0 0 0 -24-24zm0 32a8 8 0 1 1 8-8 8.009 8.009 0 0 1 -8 8z"/><path d="m408 376a24 24 0 1 0 24 24 24.027 24.027 0 0 0 -24-24zm0 32a8 8 0 1 1 8-8 8.009 8.009 0 0 1 -8 8z"/><path d="m502.73 267.67-72-112a8 8 0 0 0 -6.73-3.67h-96v-44a28.031 28.031 0 0 0 -28-28h-264a28.031 28.031 0 0 0 -28 28v292a8 8 0 0 0 8 8h32.58a55.994 55.994 0 0 0 110.84 0h193.16a55.994 55.994 0 0 0 110.84 0h32.58a8 8 0 0 0 8-8v-128a8.018 8.018 0 0 0 -1.27-4.33zm-398.73 172.33a40 40 0 1 1 40-40 40.04 40.04 0 0 1 -40 40zm208-48h-152.58a55.994 55.994 0 0 0 -110.84 0h-24.58v-80h288zm0-96h-288v-188a12.01 12.01 0 0 1 12-12h264a12.01 12.01 0 0 1 12 12zm123.06-104 46.29 72h-113.35v-72zm-27.06 248a40 40 0 1 1 40-40 40.04 40.04 0 0 1 -40 40zm80-112h-16a8 8 0 0 1 0-16h16zm0-32h-16a24 24 0 0 0 0 48h16v48h-24.58a55.994 55.994 0 0 0 -110.84 0h-24.58v-224h91.63l5.15 8h-64.78a8 8 0 0 0 -8 8v88a8 8 0 0 0 8 8h128z"/><path d="m384 296h-24a8 8 0 0 0 0 16h24a8 8 0 0 0 0-16z"/><path d="m216 344h64a8 8 0 0 0 0-16h-64a8 8 0 0 0 0 16z"/><path d="m280 352h-24a8 8 0 0 0 0 16h24a8 8 0 0 0 0-16z"/></g></g></svg>